<?xml version="1.0" encoding="UTF-8"?>
<svg width="400" height="400" viewBox="0 0 400 400" fill="none" xmlns="http://www.w3.org/2000/svg">
    <!-- Skateboard -->
    <rect x="100" y="300" width="200" height="20" rx="10" fill="#333"/>
    <circle cx="120" cy="320" r="15" fill="#666"/>
    <circle cx="280" cy="320" r="15" fill="#666"/>
    
    <!-- Character -->
    <g transform="translate(180, 200)">
        <!-- Body -->
        <path d="M0,0 Q-20,40 -10,80 Q0,120 20,80 Q40,40 0,0" fill="#00BCD4"/>
        
        <!-- Head -->
        <circle cx="0" cy="-20" r="30" fill="#FFB74D"/>
        
        <!-- Arms -->
        <path d="M-10,30 Q-40,0 -60,30" stroke="#00BCD4" stroke-width="10" fill="none"/>
        <path d="M10,30 Q40,0 60,30" stroke="#00BCD4" stroke-width="10" fill="none"/>
        
        <!-- Legs -->
        <path d="M0,80 Q-20,120 -30,160" stroke="#424242" stroke-width="12" fill="none"/>
        <path d="M0,80 Q20,120 30,160" stroke="#424242" stroke-width="12" fill="none"/>
    </g>
    
    <!-- Envelope -->
    <g transform="translate(260, 180) rotate(-15)">
        <rect x="-30" y="-20" width="60" height="40" fill="#FFF" stroke="#00BCD4" stroke-width="2"/>
        <path d="M-30,-20 L0,0 L30,-20" stroke="#00BCD4" stroke-width="2" fill="none"/>
    </g>
    
    <!-- Decorative elements -->
    <circle cx="50" cy="50" r="8" fill="#FFB74D"/>
    <circle cx="350" cy="100" r="6" fill="#00BCD4"/>
    <circle cx="80" cy="150" r="4" fill="#00BCD4"/>
    <circle cx="320" cy="250" r="5" fill="#FFB74D"/>
</svg> 